<svg width="322" height="320" viewBox="0 0 322 320" fill="none" xmlns="http://www.w3.org/2000/svg">
<g filter="url(#filter0_d_1_6)">
<mask id="mask0_1_6" style="mask-type:alpha" maskUnits="userSpaceOnUse" x="1" y="0" width="310" height="307">
<path d="M156 0L219.044 13.4005L271.187 51.2848L303.414 107.102L310.151 171.202L290.234 232.5L247.107 280.398L188.226 306.613H123.774L64.8933 280.398L21.7661 232.5L1.84912 171.202L8.58626 107.102L40.8126 51.2848L92.9558 13.4005L156 0Z" fill="#483D8B"/>
</mask>
<g mask="url(#mask0_1_6)">
<path fill-rule="evenodd" clip-rule="evenodd" d="M-5.5 307.5V-0.5H345V307.5H215L248 296L292 241L314.5 175L312.743 154.5L310.986 134L307 87.5L296.5 142L292 156.431L280 175L242.5 204L215 229L191.5 272L168.5 290.7L115.5 307.5H-5.5Z" fill="#E5E5E5"/>
<path d="M296.5 185L280 175L273 201.5L255.5 241L284 213L296.5 185Z" fill="#DBDBDB"/>
<path d="M255.5 241L273 201.5L242.5 204L255.5 241Z" fill="#BCBCBC"/>
<path d="M280 175L242.5 204L273 201.5L280 175Z" fill="#D6D6D6"/>
<path d="M292 156.431L280 175L296.5 185L292 156.431Z" fill="#D6D6D6"/>
<path d="M309 149.5L296.5 142L292 156.431L296.5 185L309 149.5Z" fill="#DFDEDE"/>
<path d="M302 199L309 149.5L296.5 185L302 199Z" fill="#BCBCBC"/>
<path d="M271.5 241L302 199L296.5 185L284 213L271.5 241Z" fill="#B7B7B7"/>
<path d="M242.5 261L271.5 241L284 213L255.5 241L242.5 261Z" fill="#B4B4B4"/>
<path d="M255.5 241L242.5 204L236 244L255.5 241Z" fill="#A0A0A0"/>
<path d="M236 244L242.5 204L231 226L236 244Z" fill="#BCBCBC"/>
<path d="M242.5 204L215 229L231 226L242.5 204Z" fill="#D6D6D6"/>
<path d="M231 226L215 229L218.5 257.5L236 244L231 226Z" fill="#E5E5E5"/>
<path d="M215 229L191.5 272L205 264.75L218.5 257.5L215 229Z" fill="#D6D6D6"/>
<path d="M218.5 257.5L205 264.75L191.5 272H225.5L216 266.5L218.5 257.5Z" fill="#C2C2C2"/>
<path d="M236 244L218.5 257.5L216 266.5L225.5 272L230.75 258L236 244Z" fill="#A0A0A0"/>
<path d="M225.5 272L242.5 261L236 244L230.75 258L225.5 272Z" fill="#A0A0A0"/>
<path d="M242.5 261L255.5 241L236 244L242.5 261Z" fill="#C0C0C0"/>
<path d="M168.5 290.7L115.5 307.5H160L168.5 290.7Z" fill="#D6D6D6"/>
<path d="M230.5 290.7H168.5L160 307.5H215L230.5 290.7Z" fill="#A0A0A0"/>
<path fill-rule="evenodd" clip-rule="evenodd" d="M310.986 134L309 149.5L302 199L271.5 241L242.5 261L230.5 290.7L215 307.5L248 296L292 241L314.5 175L312.743 154.5L310.986 134Z" fill="#979797"/>
<path d="M307 87.5L296.5 142L309 149.5L310.986 134L307 87.5Z" fill="#D6D6D6"/>
<path d="M168.5 290.7H230.5L225.5 272L168.5 290.7Z" fill="#BBBBBB"/>
<path fill-rule="evenodd" clip-rule="evenodd" d="M225.5 272L230.5 290.7L242.5 261L225.5 272Z" fill="#A2A2A2"/>
<path d="M191.5 272L168.5 290.7L225.5 272H191.5Z" fill="#D4D4D4"/>
<path d="M78.5 174L65 188L78.5 197.5L126.5 193L78.5 174Z" fill="#090F1C"/>
<path d="M126.5 193L78.5 197.5L110 214.5L115.619 207.178L126.5 193Z" fill="#14213D"/>
<path d="M78.5 197.5L92.75 222.5L107 247.5L110 214.5L78.5 197.5Z" fill="#11192A"/>
<path d="M110 214.5L107 247.5L139 235.5L131.41 209.694L115.619 207.178L110 214.5Z" fill="#090F1C"/>
<path d="M126.5 193L115.619 207.178L131.41 209.694L126.5 193Z" fill="#11192A"/>
<path d="M65 188L48.5 198L78.5 197.5L65 188Z" fill="#11192A"/>
<path d="M78.5 174L47 174.5L65 188L78.5 174Z" fill="#11192A"/>
<path d="M78.5 174L126.5 193L87 161.5L68 167.5L78.5 174Z" fill="#14213D"/>
<path d="M87 161.5L126.5 193L138.555 171L87 161.5Z" fill="#11192A"/>
<path d="M146.5 156.5L138.555 171L126.5 193L173.5 180L146.5 156.5Z" fill="#090F1C"/>
<path d="M173.5 180L126.5 193L171 216L173.5 180Z" fill="#11192A"/>
<path d="M171 216L126.5 193L131.41 209.694L171 216Z" fill="#090F1C"/>
<path d="M139 235.5L171 216L131.41 209.694L139 235.5Z" fill="#0F182C"/>
<path d="M139 235.5L153 257L162 236.5L171 216L139 235.5Z" fill="#060E1F"/>
<path d="M153 257L163.5 262.5L171 216L162 236.5L153 257Z" fill="#090F1C"/>
<path d="M163.5 262.5L179.5 280.5L183 251L171 216L163.5 262.5Z" fill="#11192A"/>
<path d="M183 251L197.5 235.5L185.5 203L171 216L183 251Z" fill="#14213D"/>
<path d="M171 216L185.5 203L173.5 180L171 216Z" fill="#11192A"/>
<path d="M185.5 203L205 221.5L200 200.5L201.5 174L185.5 203Z" fill="#11192A"/>
<path d="M173.5 180L185.5 203L201.5 174L173.5 180Z" fill="#14213D"/>
<path d="M197.5 235.5L199 215.808L185.5 203L197.5 235.5Z" fill="#14213D"/>
<path d="M200 200.5L207 208L209.5 190L201.5 174L200 200.5Z" fill="#14213D"/>
<path d="M209.5 190L220 198L207 166.5L200 145.5L201.5 174L209.5 190Z" fill="#14213D"/>
<path d="M207 166.5L212.5 173L210 145.5H200L207 166.5Z" fill="#14213D"/>
<path d="M171 135.5L201.5 174L200 145.5L171 135.5Z" fill="#14213D"/>
<path d="M171 135.5L173.5 180L201.5 174L171 135.5Z" fill="#11192A"/>
<path d="M173.5 180L171 135.5L156.5 147.929L173.5 180Z" fill="#14213D"/>
<path d="M146.5 156.5L173.5 180L156.5 147.929L146.5 156.5Z" fill="#11192A"/>
<path d="M146.5 156.5L87 161.5L138.555 171L146.5 156.5Z" fill="#11192A"/>
<path d="M94.5 147L76.5 155L87 161.5L146.5 156.5L140 147L117.5 156L94.5 147Z" fill="#14213D"/>
<path d="M79.5 136.5L84.5 146.5L94.5 147L91.5 132L79.5 136.5Z" fill="#14213D"/>
<path d="M96.5 130L91.5 132L94.5 147L117.5 125L96.5 130Z" fill="#1A2A4D"/>
<path d="M91.5 132L96.5 130L117.5 125L125.5 118L108.5 121.5L101 125L91.5 132Z" fill="#14213D"/>
<path d="M86 132L79.5 136.5L91.5 132L101 125L86 132Z" fill="#14213D"/>
<path d="M94.5 147L117.5 156V125L94.5 147Z" fill="#14213D"/>
<path d="M117.5 125V156L135.5 134L117.5 125Z" fill="#14213D"/>
<path d="M117.5 156L140 147L135.5 134L117.5 156Z" fill="#1A2A4D"/>
<path d="M140 147L146.5 156.5L140 130L135.5 134L140 147Z" fill="#14213D"/>
<path d="M125.5 118L117.5 125L135.5 134L140 130L125.5 118Z" fill="#1A2A4D"/>
<path d="M125.5 118L140 130L155.5 108.358L166.5 93L125.5 118Z" fill="#1A2A4D"/>
<path d="M140 130L146.5 156.5L156.5 147.929L155.5 108.358L140 130Z" fill="#090F1C"/>
<path d="M156.5 147.929L171 135.5L155.5 108.358L156.5 147.929Z" fill="#11192A"/>
<path d="M155.5 108.358L171 135.5L203.832 104.658L204 104.5L182 103L155.5 108.358Z" fill="#192F5D"/>
<path d="M171 135.5L200 145.5L203.832 104.658L171 135.5Z" fill="#1A2A4D"/>
<path d="M204 104.5L203.832 104.658L200 145.5L217.5 117.5L204.5 100.5L204 104.5Z" fill="#1A2A4D"/>
<path d="M200 145.5L219 127.5L217.5 117.5L200 145.5Z" fill="#14213D"/>
<path d="M210 145.5L219 127.5L200 145.5H210Z" fill="#192F5D"/>
<path d="M122 112L125.5 118L166.5 93L159.5 95.9888L122 112Z" fill="#14213D"/>
<path d="M122 112L108.5 121.5L125.5 118L122 112Z" fill="#14213D"/>
<path d="M138.5 92.5L122 112L159.5 95.9888L161 90.5L138.5 92.5Z" fill="#14213D"/>
<path d="M157.5 81.5L138.5 92.5L161 90.5L157.5 81.5Z" fill="#14213D"/>
<path d="M169.5 80L157.5 81.5L161 90.5L163.5 88L165.25 85.25L169.5 80Z" fill="#14213D"/>
<path d="M159.5 95.9888L166.5 93H163.5L161 90.5L159.5 95.9888Z" fill="#14213D"/>
<path d="M182 103L166.5 93L155.5 108.358L182 103Z" fill="#14213D"/>
<path d="M166.5 88.5V93L182 103L172.5 86L166.5 88.5Z" fill="#14213D"/>
<path d="M169.5 80L165.25 85.25L172.5 86L172.674 85.84L169.5 80Z" fill="#14213D"/>
<path d="M177.5 74L169.5 80L172.674 85.84L185 74.5L177.5 74Z" fill="#192F5D"/>
<path d="M202 72L185 74.5L172.674 85.84L182 103L202 72Z" fill="#1A2A4D"/>
<path d="M202 72L182 103L202 94.5L214.5 76L202 72Z" fill="#192F5D"/>
<path d="M211 56.5L202 72L214.5 76L213.66 60L212.33 58.25L211 56.5Z" fill="#14213D"/>
<path d="M204 53L202 57.5V72L211 56.5L204 53Z" fill="#14213D"/>
<path d="M197 54L185 74.5L202 72V57.5L197 54Z" fill="#1A2A4D"/>
<path d="M197 54L200 47L192.5 53L185 74.5L197 54Z" fill="#14213D"/>
<path d="M192.5 53L177.5 74L185 74.5L192.5 53Z" fill="#14213D"/>
<path d="M207 47L197 54L202 57.5L204 53L209 47H207Z" fill="#14213D"/>
<path d="M211 47H209L204 53L211 56.5L212.33 58.25L215.6 55L211 47Z" fill="#192F5D"/>
<path d="M219.5 91.5L222.5 67L215.6 55L212.33 58.25L213.66 60L220.5 69L216.5 91.5L219 95.5L226 91.5H219.5Z" fill="#14213D"/>
<path d="M216.5 91.5L220.5 69L213.66 60L214.5 76L202 94.5L204.5 100.5L212 95.9888L217.5 102.5L219 102.312L225.5 101.5L228 93L227 91.5H226L219 95.5L216.5 91.5Z" fill="#1A2A4D"/>
<path d="M182 103L204 104.5L204.5 100.5L202 94.5L182 103Z" fill="#14213D"/>
<path d="M212 95.9888L204.5 100.5L217.5 117.5L212 95.9888Z" fill="#14213D"/>
<path d="M217.5 102.5L212 95.9888L217.5 117.5L219 102.312L217.5 102.5Z" fill="#14213D"/>
<path d="M229.5 112L225.5 101.5L219 102.312L217.5 117.5L229.5 112Z" fill="#1A2A4D"/>
<path d="M219 127.5L229.5 112L217.5 117.5L219 127.5Z" fill="#14213D"/>
<path d="M229.5 112L240 102.5L228 93L225.5 101.5L229.5 112Z" fill="#14213D"/>
<path d="M240 102.5L240.5 92L228 93L240 102.5Z" fill="#192F5D"/>
<path d="M240.5 92L237.5 85.5L231.5 88.9286L227 91.5L228 93L240.5 92Z" fill="#14213D"/>
<path d="M227 91.5L231.5 88.9286L225.5 83L227 91.5Z" fill="#14213D"/>
<path fill-rule="evenodd" clip-rule="evenodd" d="M166.5 88.5V93H163.5L161 90.5L163.201 88.2994L166.5 88.5Z" fill="#FCA311"/>
<path d="M163.201 88.2994L166.5 88.5L172.5 86L165.25 85.25L163.5 88L163.201 88.2994Z" fill="#14213D"/>
<path d="M78.5 174L47 174.5L65 188M78.5 174L65 188M78.5 174L126.5 193M78.5 174L68 167.5L87 161.5M65 188L48.5 198L78.5 197.5M65 188L78.5 197.5M78.5 197.5L126.5 193M78.5 197.5L110 214.5M78.5 197.5L92.75 222.5L107 247.5M126.5 193L87 161.5M126.5 193L138.555 171M126.5 193L173.5 180M126.5 193L171 216M126.5 193L115.619 207.178M126.5 193L131.41 209.694M87 161.5L76.5 155L94.5 147M87 161.5L146.5 156.5M87 161.5L138.555 171M107 247.5L110 214.5M107 247.5L139 235.5M110 214.5L115.619 207.178M139 235.5L153 257M139 235.5L171 216M139 235.5L131.41 209.694M153 257L163.5 262.5M153 257L162 236.5L171 216M163.5 262.5L179.5 280.5L183 251M163.5 262.5L171 216M183 251L197.5 235.5M183 251L171 216M197.5 235.5L199 215.808L185.5 203M197.5 235.5L185.5 203M171 216L185.5 203M171 216L173.5 180M171 216L131.41 209.694M115.619 207.178L131.41 209.694M185.5 203L205 221.5L200 200.5M185.5 203L173.5 180M185.5 203L201.5 174M200 200.5L207 208L209.5 190M200 200.5L201.5 174M209.5 190L220 198L207 166.5M209.5 190L201.5 174M207 166.5L212.5 173L210 145.5M207 166.5L200 145.5M210 145.5L219 127.5M210 145.5H200M219 127.5L229.5 112M219 127.5L200 145.5M219 127.5L217.5 117.5M229.5 112L240 102.5M229.5 112L225.5 101.5M229.5 112L217.5 117.5M240 102.5L240.5 92M240 102.5L228 93M240.5 92L237.5 85.5L231.5 88.9286M240.5 92L228 93M227 91.5H226M227 91.5L231.5 88.9286M227 91.5L225.5 83L231.5 88.9286M227 91.5L228 93M197 54L207 47H209M197 54L200 47L192.5 53M197 54L185 74.5M197 54L202 57.5M192.5 53L177.5 74M192.5 53L185 74.5M177.5 74L169.5 80M177.5 74L185 74.5M169.5 80L157.5 81.5M169.5 80L165.25 85.25M169.5 80L172.674 85.84M157.5 81.5L138.5 92.5M157.5 81.5L161 90.5M138.5 92.5L122 112M138.5 92.5L161 90.5M122 112L108.5 121.5M122 112L125.5 118M122 112L159.5 95.9888M108.5 121.5L101 125M108.5 121.5L125.5 118M79.5 136.5L86 132L101 125M79.5 136.5L84.5 146.5L94.5 147M79.5 136.5L91.5 132M94.5 147L117.5 156M94.5 147L91.5 132M94.5 147L117.5 125M146.5 156.5L140 147M146.5 156.5L140 130M146.5 156.5L138.555 171M146.5 156.5L173.5 180M146.5 156.5L156.5 147.929M140 147L117.5 156M140 147L135.5 134M117.5 156V125M117.5 156L135.5 134M91.5 132L96.5 130L117.5 125M91.5 132L101 125M117.5 125L125.5 118M117.5 125L135.5 134M125.5 118L140 130M125.5 118L166.5 93M140 130L135.5 134M140 130L155.5 108.358M173.5 180L171 135.5M173.5 180L156.5 147.929M173.5 180L201.5 174M171 135.5L156.5 147.929M171 135.5L155.5 108.358M171 135.5L201.5 174M171 135.5L200 145.5M171 135.5L203.832 104.658M156.5 147.929L155.5 108.358M166.5 93L159.5 95.9888M166.5 93V88.5M166.5 93H163.5L161 90.5M166.5 93L182 103M166.5 93L155.5 108.358M161 90.5L159.5 95.9888M161 90.5L163.5 88M161 90.5L163.201 88.2994M163.201 88.2994L166.5 88.5M163.201 88.2994L163.5 88M166.5 88.5L172.5 86M165.25 85.25L172.5 86M165.25 85.25L163.5 88M172.5 86L182 103M172.5 86L172.674 85.84M182 103L155.5 108.358M182 103L204 104.5M182 103L202 72M182 103L202 94.5M182 103L172.674 85.84M185 74.5L202 72M185 74.5L172.674 85.84M201.5 174L200 145.5M200 145.5L203.832 104.658M200 145.5L217.5 117.5M204 104.5L203.832 104.658M204 104.5L204.5 100.5M202 57.5L204 53M202 57.5V72M204 53L209 47M204 53L211 56.5M209 47H211L215.6 55M211 56.5L202 72M211 56.5L212.33 58.25M202 72L214.5 76M226 91.5H219.5L222.5 67L215.6 55M226 91.5L219 95.5L216.5 91.5L220.5 69L213.66 60M228 93L225.5 101.5M225.5 101.5L219 102.312M212 95.9888L217.5 102.5L219 102.312M212 95.9888L204.5 100.5M212 95.9888L217.5 117.5M204.5 100.5L202 94.5M204.5 100.5L217.5 117.5M202 94.5L214.5 76M214.5 76L213.66 60M213.66 60L212.33 58.25M212.33 58.25L215.6 55M217.5 117.5L219 102.312" stroke="#E5E5E5" stroke-width="0.5"/>
</g>
</g>
<defs>
<filter id="filter0_d_1_6" x="0.849121" y="0" width="320.302" height="319.613" filterUnits="userSpaceOnUse" color-interpolation-filters="sRGB">
<feFlood flood-opacity="0" result="BackgroundImageFix"/>
<feColorMatrix in="SourceAlpha" type="matrix" values="0 0 0 0 0 0 0 0 0 0 0 0 0 0 0 0 0 0 127 0" result="hardAlpha"/>
<feOffset dx="5" dy="7"/>
<feGaussianBlur stdDeviation="3"/>
<feComposite in2="hardAlpha" operator="out"/>
<feColorMatrix type="matrix" values="0 0 0 0 0 0 0 0 0 0 0 0 0 0 0 0 0 0 0.25 0"/>
<feBlend mode="normal" in2="BackgroundImageFix" result="effect1_dropShadow_1_6"/>
<feBlend mode="normal" in="SourceGraphic" in2="effect1_dropShadow_1_6" result="shape"/>
</filter>
</defs>
</svg>
