<svg width="349" height="347" viewBox="0 0 349 347" fill="none" xmlns="http://www.w3.org/2000/svg">
<rect width="348.3" height="346.61" rx="173.305" fill="white"/>
<g filter="url(#filter0_d_112_7)">
<mask id="mask0_112_7" style="mask-type:alpha" maskUnits="userSpaceOnUse" x="20" y="20" width="309" height="307">
<path d="M174.151 20L237.195 33.4005L289.338 71.2848L321.565 127.102L328.302 191.202L308.385 252.5L265.258 300.398L206.377 326.613H141.925L83.0442 300.398L39.917 252.5L20 191.202L26.7371 127.102L58.9634 71.2848L111.107 33.4005L174.151 20Z" fill="#483D8B"/>
</mask>
<g mask="url(#mask0_112_7)">
<path fill-rule="evenodd" clip-rule="evenodd" d="M12.6509 327.5V19.5H363.151V327.5H233.151L266.151 316L310.151 261L332.651 195L330.894 174.5L329.137 154L325.151 107.5L314.651 162L310.151 176.431L298.151 195L260.651 224L233.151 249L209.651 292L186.651 310.7L133.651 327.5H12.6509Z" fill="#E5E5E5"/>
<path d="M314.651 205L298.151 195L291.151 221.5L273.651 261L302.151 233L314.651 205Z" fill="#DBDBDB"/>
<path d="M273.651 261L291.151 221.5L260.651 224L273.651 261Z" fill="#BCBCBC"/>
<path d="M298.151 195L260.651 224L291.151 221.5L298.151 195Z" fill="#D6D6D6"/>
<path d="M310.151 176.431L298.151 195L314.651 205L310.151 176.431Z" fill="#D6D6D6"/>
<path d="M327.151 169.5L314.651 162L310.151 176.431L314.651 205L327.151 169.5Z" fill="#DFDEDE"/>
<path d="M320.151 219L327.151 169.5L314.651 205L320.151 219Z" fill="#BCBCBC"/>
<path d="M289.651 261L320.151 219L314.651 205L302.151 233L289.651 261Z" fill="#B7B7B7"/>
<path d="M260.651 281L289.651 261L302.151 233L273.651 261L260.651 281Z" fill="#B4B4B4"/>
<path d="M273.651 261L260.651 224L254.151 264L273.651 261Z" fill="#A0A0A0"/>
<path d="M254.151 264L260.651 224L249.151 246L254.151 264Z" fill="#BCBCBC"/>
<path d="M260.651 224L233.151 249L249.151 246L260.651 224Z" fill="#D6D6D6"/>
<path d="M249.151 246L233.151 249L236.651 277.5L254.151 264L249.151 246Z" fill="#E5E5E5"/>
<path d="M233.151 249L209.651 292L223.151 284.75L236.651 277.5L233.151 249Z" fill="#D6D6D6"/>
<path d="M236.651 277.5L223.151 284.75L209.651 292H243.651L234.151 286.5L236.651 277.5Z" fill="#C2C2C2"/>
<path d="M254.151 264L236.651 277.5L234.151 286.5L243.651 292L248.901 278L254.151 264Z" fill="#A0A0A0"/>
<path d="M243.651 292L260.651 281L254.151 264L248.901 278L243.651 292Z" fill="#A0A0A0"/>
<path d="M260.651 281L273.651 261L254.151 264L260.651 281Z" fill="#C0C0C0"/>
<path d="M186.651 310.7L133.651 327.5H178.151L186.651 310.7Z" fill="#D6D6D6"/>
<path d="M248.651 310.7H186.651L178.151 327.5H233.151L248.651 310.7Z" fill="#A0A0A0"/>
<path fill-rule="evenodd" clip-rule="evenodd" d="M329.137 154L327.151 169.5L320.151 219L289.651 261L260.651 281L248.651 310.7L233.151 327.5L266.151 316L310.151 261L332.651 195L330.894 174.5L329.137 154Z" fill="#979797"/>
<path d="M325.151 107.5L314.651 162L327.151 169.5L329.137 154L325.151 107.5Z" fill="#D6D6D6"/>
<path d="M186.651 310.7H248.651L243.651 292L186.651 310.7Z" fill="#BBBBBB"/>
<path fill-rule="evenodd" clip-rule="evenodd" d="M243.651 292L248.651 310.7L260.651 281L243.651 292Z" fill="#A2A2A2"/>
<path d="M209.651 292L186.651 310.7L243.651 292H209.651Z" fill="#D4D4D4"/>
<path d="M96.6509 194L83.1509 208L96.6509 217.5L144.651 213L96.6509 194Z" fill="#090F1C"/>
<path d="M144.651 213L96.6509 217.5L128.151 234.5L133.77 227.178L144.651 213Z" fill="#14213D"/>
<path d="M96.6509 217.5L110.901 242.5L125.151 267.5L128.151 234.5L96.6509 217.5Z" fill="#11192A"/>
<path d="M128.151 234.5L125.151 267.5L157.151 255.5L149.561 229.694L133.77 227.178L128.151 234.5Z" fill="#090F1C"/>
<path d="M144.651 213L133.77 227.178L149.561 229.694L144.651 213Z" fill="#11192A"/>
<path d="M83.1509 208L66.6509 218L96.6509 217.5L83.1509 208Z" fill="#11192A"/>
<path d="M96.6509 194L65.1509 194.5L83.1509 208L96.6509 194Z" fill="#11192A"/>
<path d="M96.6509 194L144.651 213L105.151 181.5L86.1509 187.5L96.6509 194Z" fill="#14213D"/>
<path d="M105.151 181.5L144.651 213L156.706 191L105.151 181.5Z" fill="#11192A"/>
<path d="M164.651 176.5L156.706 191L144.651 213L191.651 200L164.651 176.5Z" fill="#090F1C"/>
<path d="M191.651 200L144.651 213L189.151 236L191.651 200Z" fill="#11192A"/>
<path d="M189.151 236L144.651 213L149.561 229.694L189.151 236Z" fill="#090F1C"/>
<path d="M157.151 255.5L189.151 236L149.561 229.694L157.151 255.5Z" fill="#0F182C"/>
<path d="M157.151 255.5L171.151 277L180.151 256.5L189.151 236L157.151 255.5Z" fill="#060E1F"/>
<path d="M171.151 277L181.651 282.5L189.151 236L180.151 256.5L171.151 277Z" fill="#090F1C"/>
<path d="M181.651 282.5L197.651 300.5L201.151 271L189.151 236L181.651 282.5Z" fill="#11192A"/>
<path d="M201.151 271L215.651 255.5L203.651 223L189.151 236L201.151 271Z" fill="#14213D"/>
<path d="M189.151 236L203.651 223L191.651 200L189.151 236Z" fill="#11192A"/>
<path d="M203.651 223L223.151 241.5L218.151 220.5L219.651 194L203.651 223Z" fill="#11192A"/>
<path d="M191.651 200L203.651 223L219.651 194L191.651 200Z" fill="#14213D"/>
<path d="M215.651 255.5L217.151 235.808L203.651 223L215.651 255.5Z" fill="#14213D"/>
<path d="M218.151 220.5L225.151 228L227.651 210L219.651 194L218.151 220.5Z" fill="#14213D"/>
<path d="M227.651 210L238.151 218L225.151 186.5L218.151 165.5L219.651 194L227.651 210Z" fill="#14213D"/>
<path d="M225.151 186.5L230.651 193L228.151 165.5H218.151L225.151 186.5Z" fill="#14213D"/>
<path d="M189.151 155.5L219.651 194L218.151 165.5L189.151 155.5Z" fill="#14213D"/>
<path d="M189.151 155.5L191.651 200L219.651 194L189.151 155.5Z" fill="#11192A"/>
<path d="M191.651 200L189.151 155.5L174.651 167.929L191.651 200Z" fill="#14213D"/>
<path d="M164.651 176.5L191.651 200L174.651 167.929L164.651 176.5Z" fill="#11192A"/>
<path d="M164.651 176.5L105.151 181.5L156.706 191L164.651 176.5Z" fill="#11192A"/>
<path d="M112.651 167L94.6509 175L105.151 181.5L164.651 176.5L158.151 167L135.651 176L112.651 167Z" fill="#14213D"/>
<path d="M97.6509 156.5L102.651 166.5L112.651 167L109.651 152L97.6509 156.5Z" fill="#14213D"/>
<path d="M114.651 150L109.651 152L112.651 167L135.651 145L114.651 150Z" fill="#1A2A4D"/>
<path d="M109.651 152L114.651 150L135.651 145L143.651 138L126.651 141.5L119.151 145L109.651 152Z" fill="#14213D"/>
<path d="M104.151 152L97.6509 156.5L109.651 152L119.151 145L104.151 152Z" fill="#14213D"/>
<path d="M112.651 167L135.651 176V145L112.651 167Z" fill="#14213D"/>
<path d="M135.651 145V176L153.651 154L135.651 145Z" fill="#14213D"/>
<path d="M135.651 176L158.151 167L153.651 154L135.651 176Z" fill="#1A2A4D"/>
<path d="M158.151 167L164.651 176.5L158.151 150L153.651 154L158.151 167Z" fill="#14213D"/>
<path d="M143.651 138L135.651 145L153.651 154L158.151 150L143.651 138Z" fill="#1A2A4D"/>
<path d="M143.651 138L158.151 150L173.651 128.358L184.651 113L143.651 138Z" fill="#1A2A4D"/>
<path d="M158.151 150L164.651 176.5L174.651 167.929L173.651 128.358L158.151 150Z" fill="#090F1C"/>
<path d="M174.651 167.929L189.151 155.5L173.651 128.358L174.651 167.929Z" fill="#11192A"/>
<path d="M173.651 128.358L189.151 155.5L221.983 124.658L222.151 124.5L200.151 123L173.651 128.358Z" fill="#192F5D"/>
<path d="M189.151 155.5L218.151 165.5L221.983 124.658L189.151 155.5Z" fill="#1A2A4D"/>
<path d="M222.151 124.5L221.983 124.658L218.151 165.5L235.651 137.5L222.651 120.5L222.151 124.5Z" fill="#1A2A4D"/>
<path d="M218.151 165.5L237.151 147.5L235.651 137.5L218.151 165.5Z" fill="#14213D"/>
<path d="M228.151 165.5L237.151 147.5L218.151 165.5H228.151Z" fill="#192F5D"/>
<path d="M140.151 132L143.651 138L184.651 113L177.651 115.989L140.151 132Z" fill="#14213D"/>
<path d="M140.151 132L126.651 141.5L143.651 138L140.151 132Z" fill="#14213D"/>
<path d="M156.651 112.5L140.151 132L177.651 115.989L179.151 110.5L156.651 112.5Z" fill="#14213D"/>
<path d="M175.651 101.5L156.651 112.5L179.151 110.5L175.651 101.5Z" fill="#14213D"/>
<path d="M187.651 100L175.651 101.5L179.151 110.5L181.651 108L183.401 105.25L187.651 100Z" fill="#14213D"/>
<path d="M177.651 115.989L184.651 113H181.651L179.151 110.5L177.651 115.989Z" fill="#14213D"/>
<path d="M200.151 123L184.651 113L173.651 128.358L200.151 123Z" fill="#14213D"/>
<path d="M184.651 108.5V113L200.151 123L190.651 106L184.651 108.5Z" fill="#14213D"/>
<path d="M187.651 100L183.401 105.25L190.651 106L190.825 105.84L187.651 100Z" fill="#14213D"/>
<path d="M195.651 94L187.651 100L190.825 105.84L203.151 94.5L195.651 94Z" fill="#192F5D"/>
<path d="M220.151 92L203.151 94.5L190.825 105.84L200.151 123L220.151 92Z" fill="#1A2A4D"/>
<path d="M220.151 92L200.151 123L220.151 114.5L232.651 96L220.151 92Z" fill="#192F5D"/>
<path d="M229.151 76.5L220.151 92L232.651 96L231.811 80L230.481 78.25L229.151 76.5Z" fill="#14213D"/>
<path d="M222.151 73L220.151 77.5V92L229.151 76.5L222.151 73Z" fill="#14213D"/>
<path d="M215.151 74L203.151 94.5L220.151 92V77.5L215.151 74Z" fill="#1A2A4D"/>
<path d="M215.151 74L218.151 67L210.651 73L203.151 94.5L215.151 74Z" fill="#14213D"/>
<path d="M210.651 73L195.651 94L203.151 94.5L210.651 73Z" fill="#14213D"/>
<path d="M225.151 67L215.151 74L220.151 77.5L222.151 73L227.151 67H225.151Z" fill="#14213D"/>
<path d="M229.151 67H227.151L222.151 73L229.151 76.5L230.481 78.25L233.751 75L229.151 67Z" fill="#192F5D"/>
<path d="M237.651 111.5L240.651 87L233.751 75L230.481 78.25L231.811 80L238.651 89L234.651 111.5L237.151 115.5L244.151 111.5H237.651Z" fill="#14213D"/>
<path d="M234.651 111.5L238.651 89L231.811 80L232.651 96L220.151 114.5L222.651 120.5L230.151 115.989L235.651 122.5L237.151 122.312L243.651 121.5L246.151 113L245.151 111.5H244.151L237.151 115.5L234.651 111.5Z" fill="#1A2A4D"/>
<path d="M200.151 123L222.151 124.5L222.651 120.5L220.151 114.5L200.151 123Z" fill="#14213D"/>
<path d="M230.151 115.989L222.651 120.5L235.651 137.5L230.151 115.989Z" fill="#14213D"/>
<path d="M235.651 122.5L230.151 115.989L235.651 137.5L237.151 122.312L235.651 122.5Z" fill="#14213D"/>
<path d="M247.651 132L243.651 121.5L237.151 122.312L235.651 137.5L247.651 132Z" fill="#1A2A4D"/>
<path d="M237.151 147.5L247.651 132L235.651 137.5L237.151 147.5Z" fill="#14213D"/>
<path d="M247.651 132L258.151 122.5L246.151 113L243.651 121.5L247.651 132Z" fill="#14213D"/>
<path d="M258.151 122.5L258.651 112L246.151 113L258.151 122.5Z" fill="#192F5D"/>
<path d="M258.651 112L255.651 105.5L249.651 108.929L245.151 111.5L246.151 113L258.651 112Z" fill="#14213D"/>
<path d="M245.151 111.5L249.651 108.929L243.651 103L245.151 111.5Z" fill="#14213D"/>
<path fill-rule="evenodd" clip-rule="evenodd" d="M184.651 108.5V113H181.651L179.151 110.5L181.351 108.299L184.651 108.5Z" fill="#FCA311"/>
<path d="M181.351 108.299L184.651 108.5L190.651 106L183.401 105.25L181.651 108L181.351 108.299Z" fill="#14213D"/>
<path d="M96.6509 194L65.1509 194.5L83.1509 208M96.6509 194L83.1509 208M96.6509 194L144.651 213M96.6509 194L86.1509 187.5L105.151 181.5M83.1509 208L66.6509 218L96.6509 217.5M83.1509 208L96.6509 217.5M96.6509 217.5L144.651 213M96.6509 217.5L128.151 234.5M96.6509 217.5L110.901 242.5L125.151 267.5M144.651 213L105.151 181.5M144.651 213L156.706 191M144.651 213L191.651 200M144.651 213L189.151 236M144.651 213L133.77 227.178M144.651 213L149.561 229.694M105.151 181.5L94.6509 175L112.651 167M105.151 181.5L164.651 176.5M105.151 181.5L156.706 191M125.151 267.5L128.151 234.5M125.151 267.5L157.151 255.5M128.151 234.5L133.77 227.178M157.151 255.5L171.151 277M157.151 255.5L189.151 236M157.151 255.5L149.561 229.694M171.151 277L181.651 282.5M171.151 277L180.151 256.5L189.151 236M181.651 282.5L197.651 300.5L201.151 271M181.651 282.5L189.151 236M201.151 271L215.651 255.5M201.151 271L189.151 236M215.651 255.5L217.151 235.808L203.651 223M215.651 255.5L203.651 223M189.151 236L203.651 223M189.151 236L191.651 200M189.151 236L149.561 229.694M133.77 227.178L149.561 229.694M203.651 223L223.151 241.5L218.151 220.5M203.651 223L191.651 200M203.651 223L219.651 194M218.151 220.5L225.151 228L227.651 210M218.151 220.5L219.651 194M227.651 210L238.151 218L225.151 186.5M227.651 210L219.651 194M225.151 186.5L230.651 193L228.151 165.5M225.151 186.5L218.151 165.5M228.151 165.5L237.151 147.5M228.151 165.5H218.151M237.151 147.5L247.651 132M237.151 147.5L218.151 165.5M237.151 147.5L235.651 137.5M247.651 132L258.151 122.5M247.651 132L243.651 121.5M247.651 132L235.651 137.5M258.151 122.5L258.651 112M258.151 122.5L246.151 113M258.651 112L255.651 105.5L249.651 108.929M258.651 112L246.151 113M245.151 111.5H244.151M245.151 111.5L249.651 108.929M245.151 111.5L243.651 103L249.651 108.929M245.151 111.5L246.151 113M215.151 74L225.151 67H227.151M215.151 74L218.151 67L210.651 73M215.151 74L203.151 94.5M215.151 74L220.151 77.5M210.651 73L195.651 94M210.651 73L203.151 94.5M195.651 94L187.651 100M195.651 94L203.151 94.5M187.651 100L175.651 101.5M187.651 100L183.401 105.25M187.651 100L190.825 105.84M175.651 101.5L156.651 112.5M175.651 101.5L179.151 110.5M156.651 112.5L140.151 132M156.651 112.5L179.151 110.5M140.151 132L126.651 141.5M140.151 132L143.651 138M140.151 132L177.651 115.989M126.651 141.5L119.151 145M126.651 141.5L143.651 138M97.6509 156.5L104.151 152L119.151 145M97.6509 156.5L102.651 166.5L112.651 167M97.6509 156.5L109.651 152M112.651 167L135.651 176M112.651 167L109.651 152M112.651 167L135.651 145M164.651 176.5L158.151 167M164.651 176.5L158.151 150M164.651 176.5L156.706 191M164.651 176.5L191.651 200M164.651 176.5L174.651 167.929M158.151 167L135.651 176M158.151 167L153.651 154M135.651 176V145M135.651 176L153.651 154M109.651 152L114.651 150L135.651 145M109.651 152L119.151 145M135.651 145L143.651 138M135.651 145L153.651 154M143.651 138L158.151 150M143.651 138L184.651 113M158.151 150L153.651 154M158.151 150L173.651 128.358M191.651 200L189.151 155.5M191.651 200L174.651 167.929M191.651 200L219.651 194M189.151 155.5L174.651 167.929M189.151 155.5L173.651 128.358M189.151 155.5L219.651 194M189.151 155.5L218.151 165.5M189.151 155.5L221.983 124.658M174.651 167.929L173.651 128.358M184.651 113L177.651 115.989M184.651 113V108.5M184.651 113H181.651L179.151 110.5M184.651 113L200.151 123M184.651 113L173.651 128.358M179.151 110.5L177.651 115.989M179.151 110.5L181.651 108M179.151 110.5L181.351 108.299M181.351 108.299L184.651 108.5M181.351 108.299L181.651 108M184.651 108.5L190.651 106M183.401 105.25L190.651 106M183.401 105.25L181.651 108M190.651 106L200.151 123M190.651 106L190.825 105.84M200.151 123L173.651 128.358M200.151 123L222.151 124.5M200.151 123L220.151 92M200.151 123L220.151 114.5M200.151 123L190.825 105.84M203.151 94.5L220.151 92M203.151 94.5L190.825 105.84M219.651 194L218.151 165.5M218.151 165.5L221.983 124.658M218.151 165.5L235.651 137.5M222.151 124.5L221.983 124.658M222.151 124.5L222.651 120.5M220.151 77.5L222.151 73M220.151 77.5V92M222.151 73L227.151 67M222.151 73L229.151 76.5M227.151 67H229.151L233.751 75M229.151 76.5L220.151 92M229.151 76.5L230.481 78.25M220.151 92L232.651 96M244.151 111.5H237.651L240.651 87L233.751 75M244.151 111.5L237.151 115.5L234.651 111.5L238.651 89L231.811 80M246.151 113L243.651 121.5M243.651 121.5L237.151 122.312M230.151 115.989L235.651 122.5L237.151 122.312M230.151 115.989L222.651 120.5M230.151 115.989L235.651 137.5M222.651 120.5L220.151 114.5M222.651 120.5L235.651 137.5M220.151 114.5L232.651 96M232.651 96L231.811 80M231.811 80L230.481 78.25M230.481 78.25L233.751 75M235.651 137.5L237.151 122.312" stroke="#E5E5E5" stroke-width="0.5"/>
</g>
</g>
<defs>
<filter id="filter0_d_112_7" x="19" y="20" width="320.302" height="319.613" filterUnits="userSpaceOnUse" color-interpolation-filters="sRGB">
<feFlood flood-opacity="0" result="BackgroundImageFix"/>
<feColorMatrix in="SourceAlpha" type="matrix" values="0 0 0 0 0 0 0 0 0 0 0 0 0 0 0 0 0 0 127 0" result="hardAlpha"/>
<feOffset dx="5" dy="7"/>
<feGaussianBlur stdDeviation="3"/>
<feComposite in2="hardAlpha" operator="out"/>
<feColorMatrix type="matrix" values="0 0 0 0 0 0 0 0 0 0 0 0 0 0 0 0 0 0 0.25 0"/>
<feBlend mode="normal" in2="BackgroundImageFix" result="effect1_dropShadow_112_7"/>
<feBlend mode="normal" in="SourceGraphic" in2="effect1_dropShadow_112_7" result="shape"/>
</filter>
</defs>
</svg>
